# Blender v2.69 (sub 0) OBJ File: ''
# www.blender.org
mtllib recinzione.mtl
o Cube.001
v -1.428571 2.003098 0.165561
v -1.428572 0.003098 0.165561
v -2.000000 0.003098 0.165561
v -1.999999 2.003098 0.165561
v -1.428571 2.003098 0.310039
v -2.000000 2.003098 0.310039
v -2.000001 0.003099 0.310039
v -1.428572 0.003098 0.310039
v 2.000000 2.003098 0.165561
v 2.000001 2.003098 0.310039
v 1.999999 0.003098 0.310039
v 2.000000 0.003098 0.165561
v -0.285714 2.003098 0.165561
v -0.857142 2.003098 0.165561
v -0.628571 2.557444 0.165561
v -0.514285 2.557444 0.165561
v 1.428571 0.003098 0.165561
v 1.428571 2.003098 0.165561
v 0.285713 0.003098 0.310039
v 0.285715 2.003098 0.310039
v 0.285715 2.003098 0.310039
v 0.285713 0.003098 0.310039
v 0.857143 2.003098 0.165561
v 0.857143 0.003098 0.165561
v 0.285714 0.003098 0.165561
v 0.285715 2.003098 0.165561
v 1.428570 0.003098 0.310039
v 1.428570 0.003098 0.310039
v 1.428571 0.003098 0.165561
v -0.285714 0.003098 0.165561
v -0.857143 0.003098 0.165561
v 1.428571 2.003098 0.165561
v 1.428572 2.003098 0.310039
v -0.857143 0.003098 0.165561
v -0.857142 2.003098 0.165561
v 0.857144 2.003098 0.310039
v 0.857142 0.003098 0.310039
v -0.857144 0.003098 0.310039
v -0.857144 0.003098 0.310039
v -0.285714 2.003098 0.310039
v -0.857143 2.003098 0.310039
v -0.285715 0.003098 0.310039
v 0.285715 2.003098 0.165561
v -0.285714 2.003098 0.165561
v -0.285714 0.003098 0.165561
v 0.857142 0.003098 0.310039
v 0.857144 2.003098 0.310039
v -1.428572 0.003098 0.310039
v -1.428571 2.003098 0.310039
v -1.657142 2.557444 0.165561
v -1.657142 2.557444 0.310039
v -0.285715 0.003098 0.310039
v -1.771428 2.557444 0.310039
v -1.771428 2.557445 0.165561
v 0.857143 2.003098 0.165561
v 0.628572 2.557444 0.165561
v 0.628572 2.557444 0.310039
v -1.428571 2.003098 0.165561
v -0.857143 2.003098 0.310039
v 0.285714 0.003098 0.165561
v 1.428572 2.003098 0.310039
v 0.857143 0.003098 0.165561
v -1.428572 0.003098 0.165561
v -0.285714 2.003098 0.310039
v 1.771429 2.557444 0.310039
v 1.771429 2.557444 0.165561
v 1.657143 2.557444 0.165561
v 1.657143 2.557444 0.310039
v 0.514286 2.557444 0.165561
v 0.514286 2.557444 0.310039
v -0.514285 2.557444 0.310039
v -0.628571 2.557444 0.310039
v -2.176928 1.225590 0.435874
v -2.176928 1.558811 0.435874
v -2.176928 1.558811 0.310323
v -2.176928 1.225590 0.310323
v 2.162361 1.558811 0.435874
v 2.162361 1.558811 0.310323
v 2.162361 1.225590 0.435874
v 2.162361 1.225590 0.310323
v -2.176928 0.225590 0.435874
v -2.176928 0.558811 0.435874
v -2.176928 0.558811 0.310323
v -2.176928 0.225590 0.310323
v 2.162361 0.558811 0.435874
v 2.162361 0.558811 0.310323
v 2.162361 0.225590 0.435874
v 2.162361 0.225590 0.310323
vt 0.000000 0.000000
vn 0.000000 0.000000 -1.000000
vn 0.000000 -0.000000 1.000000
vn 1.000000 0.000000 -0.000007
vn -0.000002 -1.000000 -0.000000
vn -1.000000 0.000000 -0.000007
vn 0.000000 -1.000000 -0.000000
vn 0.924496 0.381193 0.000000
vn -0.924496 0.381192 -0.000007
vn 0.924495 0.381193 -0.000007
vn -1.000000 0.000001 -0.000007
vn 1.000000 -0.000000 0.000007
vn 1.000000 -0.000001 0.000000
vn 0.000000 1.000000 0.000000
vn -0.924495 0.381193 0.000000
vn 0.924496 0.381192 -0.000006
vn -0.924496 0.381193 -0.000007
vn -0.924496 0.381193 0.000007
vn 1.000000 -0.000001 0.000007
vn 0.000000 -1.000000 0.000007
vn 0.924495 0.381193 0.000000
vn -0.924495 0.381195 0.000003
vn 0.924495 0.381194 0.000000
vn -1.000000 0.000001 0.000000
vn -1.000000 0.000001 0.000007
vn 1.000000 -0.000001 -0.000007
vn 1.000000 -0.000000 0.000000
vn 0.000008 1.000000 0.000004
vn -0.924496 0.381193 0.000000
vn 0.924495 0.381195 0.000000
vn -0.924495 0.381195 0.000000
vn -0.924495 0.381194 0.000000
vn -1.000000 0.000000 0.000000
vn 0.000000 1.000000 0.000002
vn 0.000000 -1.000000 -0.000002
vn -1.000000 -0.000001 0.000000
vn 1.000000 0.000001 0.000000
usemtl boards
s off
f 1/1/1 2/1/1 4/1/1
f 5/1/2 6/1/2 8/1/2
f 9/1/3 10/1/3 12/1/3
f 2/1/4 8/1/4 7/1/4
f 3/1/5 7/1/5 4/1/5
f 13/1/1 14/1/1 16/1/1
f 9/1/1 12/1/1 18/1/1
f 19/1/2 20/1/2 22/1/2
f 23/1/1 24/1/1 26/1/1
f 17/1/2 27/1/2 29/1/2
f 13/1/1 30/1/1 14/1/1
f 18/1/2 17/1/2 32/1/2
f 10/1/2 33/1/2 27/1/2
f 14/1/2 31/1/2 35/1/2
f 36/1/2 20/1/2 19/1/2
f 31/1/2 38/1/2 34/1/2
f 40/1/2 41/1/2 42/1/2
f 20/1/2 26/1/2 21/1/2
f 12/1/6 11/1/6 27/1/6
f 30/1/2 13/1/2 45/1/2
f 24/1/6 37/1/6 19/1/6
f 36/1/2 37/1/2 47/1/2
f 30/1/6 42/1/6 38/1/6
f 5/1/2 8/1/2 49/1/2
f 5/1/7 1/1/7 51/1/7
f 42/1/2 30/1/2 52/1/2
f 4/1/8 6/1/8 54/1/8
f 23/1/2 36/1/2 55/1/2
f 36/1/9 23/1/9 56/1/9
f 1/1/2 5/1/2 58/1/2
f 34/1/10 39/1/10 35/1/10
f 60/1/10 22/1/10 43/1/10
f 29/1/5 28/1/5 32/1/5
f 62/1/11 55/1/11 46/1/11
f 63/1/12 58/1/12 48/1/12
f 45/1/11 44/1/11 52/1/11
f 13/1/2 40/1/2 44/1/2
f 8/1/2 2/1/2 48/1/2
f 40/1/2 42/1/2 64/1/2
f 2/1/2 1/1/2 63/1/2
f 24/1/2 23/1/2 62/1/2
f 37/1/2 24/1/2 46/1/2
f 41/1/2 14/1/2 59/1/2
f 33/1/2 18/1/2 61/1/2
f 25/1/2 19/1/2 60/1/2
f 38/1/2 41/1/2 39/1/2
f 27/1/2 33/1/2 28/1/2
f 26/1/2 25/1/2 43/1/2
f 51/1/13 50/1/13 53/1/13
f 65/1/13 66/1/13 68/1/13
f 57/1/13 56/1/13 70/1/13
f 71/1/13 16/1/13 72/1/13
f 26/1/14 20/1/14 69/1/14
f 9/1/1 18/1/1 66/1/1
f 41/1/2 40/1/2 71/1/2
f 33/1/2 10/1/2 68/1/2
f 1/1/1 4/1/1 54/1/1
f 40/1/7 13/1/7 71/1/7
f 6/1/2 5/1/2 51/1/2
f 20/1/2 36/1/2 70/1/2
f 10/1/15 9/1/15 66/1/15
f 14/1/16 41/1/16 15/1/16
f 23/1/1 26/1/1 56/1/1
f 18/1/17 33/1/17 68/1/17
f 2/1/1 3/1/1 4/1/1
f 6/1/2 7/1/2 8/1/2
f 10/1/18 11/1/18 12/1/18
f 3/1/19 2/1/19 7/1/19
f 7/1/5 6/1/5 4/1/5
f 14/1/1 15/1/1 16/1/1
f 12/1/1 17/1/1 18/1/1
f 20/1/2 21/1/2 22/1/2
f 24/1/1 25/1/1 26/1/1
f 27/1/2 28/1/2 29/1/2
f 30/1/1 31/1/1 14/1/1
f 17/1/2 29/1/2 32/1/2
f 11/1/2 10/1/2 27/1/2
f 31/1/2 34/1/2 35/1/2
f 37/1/2 36/1/2 19/1/2
f 38/1/2 39/1/2 34/1/2
f 41/1/2 38/1/2 42/1/2
f 26/1/2 43/1/2 21/1/2
f 17/1/6 12/1/6 27/1/6
f 13/1/2 44/1/2 45/1/2
f 25/1/6 24/1/6 19/1/6
f 37/1/2 46/1/2 47/1/2
f 31/1/6 30/1/6 38/1/6
f 8/1/2 48/1/2 49/1/2
f 1/1/20 50/1/20 51/1/20
f 30/1/2 45/1/2 52/1/2
f 6/1/21 53/1/21 54/1/21
f 36/1/2 47/1/2 55/1/2
f 57/1/22 36/1/22 56/1/22
f 5/1/2 49/1/2 58/1/2
f 39/1/10 59/1/10 35/1/10
f 22/1/23 21/1/23 43/1/23
f 28/1/24 61/1/24 32/1/24
f 55/1/25 47/1/25 46/1/25
f 58/1/26 49/1/26 48/1/26
f 44/1/26 64/1/26 52/1/26
f 40/1/2 64/1/2 44/1/2
f 2/1/2 63/1/2 48/1/2
f 42/1/2 52/1/2 64/1/2
f 1/1/2 58/1/2 63/1/2
f 23/1/2 55/1/2 62/1/2
f 24/1/2 62/1/2 46/1/2
f 14/1/2 35/1/2 59/1/2
f 18/1/2 32/1/2 61/1/2
f 19/1/2 22/1/2 60/1/2
f 41/1/2 59/1/2 39/1/2
f 33/1/2 61/1/2 28/1/2
f 25/1/2 60/1/2 43/1/2
f 50/1/27 54/1/27 53/1/27
f 66/1/13 67/1/13 68/1/13
f 56/1/13 69/1/13 70/1/13
f 16/1/13 15/1/13 72/1/13
f 20/1/28 70/1/28 69/1/28
f 18/1/1 67/1/1 66/1/1
f 72/1/2 41/1/2 71/1/2
f 10/1/2 65/1/2 68/1/2
f 50/1/1 1/1/1 54/1/1
f 13/1/20 16/1/20 71/1/20
f 53/1/2 6/1/2 51/1/2
f 36/1/2 57/1/2 70/1/2
f 65/1/29 10/1/29 66/1/29
f 41/1/30 72/1/30 15/1/30
f 26/1/1 69/1/1 56/1/1
f 67/1/31 18/1/31 68/1/31
usemtl poles
f 73/1/32 74/1/32 76/1/32
f 74/1/33 77/1/33 75/1/33
f 77/1/12 79/1/12 78/1/12
f 79/1/34 73/1/34 80/1/34
f 76/1/1 75/1/1 80/1/1
f 79/1/2 77/1/2 73/1/2
f 81/1/32 82/1/32 84/1/32
f 82/1/13 85/1/13 83/1/13
f 85/1/12 87/1/12 86/1/12
f 87/1/6 81/1/6 88/1/6
f 84/1/1 83/1/1 88/1/1
f 87/1/2 85/1/2 81/1/2
f 74/1/35 75/1/35 76/1/35
f 77/1/13 78/1/13 75/1/13
f 79/1/36 80/1/36 78/1/36
f 73/1/6 76/1/6 80/1/6
f 75/1/1 78/1/1 80/1/1
f 77/1/2 74/1/2 73/1/2
f 82/1/35 83/1/35 84/1/35
f 85/1/13 86/1/13 83/1/13
f 87/1/36 88/1/36 86/1/36
f 81/1/6 84/1/6 88/1/6
f 83/1/1 86/1/1 88/1/1
f 85/1/2 82/1/2 81/1/2
